# xmcd
#
# Track frame offsets: 
#        150
#        16518
#        34729
#        46588
#        66754
#        82732
#        98110
#        116703
#        134230
#        147584
#        163435
#        184424
#
# Disc length: 2684 seconds
#
# Revision: 3
# Processed by: cddbd v1.4PL0 Copyright (c) Steve Scherf et al.
# Submitted via: ExactAudioCopy v0.90b4
#
DISCID=a50a7a0c
DTITLE=Sue Foley - Where The Action Is
DYEAR=2002
DGENRE=Blues
TTITLE0=Where The Action Is
TTITLE1=Vertigo Blues
TTITLE2=Love Disease
TTITLE3=Two Bluebirds
TTITLE4=Stupid Girl
TTITLE5=Let It Go
TTITLE6=Every Hour
TTITLE7=Baby Where Are You?
TTITLE8=Get Yourself Together
TTITLE9=Roll With Me Henry
TTITLE10=Down The Big Road Blues
TTITLE11=Gotta Keep Moving 
EXTD=
EXTT0=
EXTT1=
EXTT2=
EXTT3=
EXTT4=
EXTT5=
EXTT6=
EXTT7=
EXTT8=
EXTT9=
EXTT10=
EXTT11=
PLAYORDER=
